<svg width="101" height="31" viewBox="0 0 101 31" fill="none" xmlns="http://www.w3.org/2000/svg">
<path d="M10.784 24.204C9.312 24.204 7.91467 23.9053 6.592 23.308C5.29067 22.7106 4.13867 21.8893 3.136 20.844C2.15467 19.7773 1.38667 18.54 0.832 17.132C0.277333 15.724 0 14.1986 0 12.556C0 10.9986 0.277333 9.53729 0.832 8.17196C1.38667 6.78529 2.16533 5.56929 3.168 4.52396C4.17067 3.47863 5.344 2.65729 6.688 2.05996C8.032 1.46263 9.49333 1.16396 11.072 1.16396C13.2053 1.16396 15.0293 1.62263 16.544 2.53996C18.08 3.43596 19.232 4.63063 20 6.12396L16.704 8.55596C16.128 7.42529 15.3173 6.56129 14.272 5.96396C13.248 5.36663 12.128 5.06796 10.912 5.06796C9.952 5.06796 9.07733 5.27063 8.288 5.67596C7.49867 6.08129 6.816 6.63596 6.24 7.33996C5.664 8.04396 5.216 8.85463 4.896 9.77196C4.59733 10.6893 4.448 11.66 4.448 12.684C4.448 13.772 4.608 14.7746 4.928 15.692C5.26933 16.6093 5.73867 17.4093 6.336 18.092C6.95467 18.7746 7.66933 19.3186 8.48 19.724C9.29067 20.108 10.1867 20.3 11.168 20.3C12.32 20.3 13.4187 20.0013 14.464 19.404C15.5307 18.8066 16.5227 17.932 17.44 16.78V21.132C15.5413 23.18 13.3227 24.204 10.784 24.204ZM17.12 15.596H12.544V12.364H20.768V24.044H17.12V15.596Z" fill="white"/>
<path d="M31.8915 24.364C30.5475 24.364 29.3315 24.14 28.2435 23.692C27.1555 23.2226 26.2275 22.5933 25.4595 21.804C24.6915 20.9933 24.0942 20.076 23.6675 19.052C23.2622 18.0066 23.0595 16.908 23.0595 15.756C23.0595 14.156 23.4115 12.6946 24.1155 11.372C24.8408 10.0493 25.8648 8.99329 27.1875 8.20396C28.5315 7.39329 30.1102 6.98796 31.9235 6.98796C33.7582 6.98796 35.3262 7.39329 36.6275 8.20396C37.9288 8.99329 38.9208 10.0493 39.6035 11.372C40.3075 12.6733 40.6595 14.0813 40.6595 15.596C40.6595 15.852 40.6488 16.1186 40.6275 16.396C40.6062 16.652 40.5848 16.8653 40.5635 17.036H27.6035C27.6888 17.8893 27.9342 18.636 28.3395 19.276C28.7662 19.916 29.2995 20.4066 29.9395 20.748C30.6008 21.068 31.3048 21.228 32.0515 21.228C32.9048 21.228 33.7048 21.0253 34.4515 20.62C35.2195 20.1933 35.7422 19.6386 36.0195 18.956L39.6995 19.98C39.2942 20.8333 38.7075 21.5906 37.9395 22.252C37.1928 22.9133 36.3075 23.436 35.2835 23.82C34.2595 24.1826 33.1288 24.364 31.8915 24.364ZM27.5075 14.316H36.2755C36.1902 13.4626 35.9448 12.7266 35.5395 12.108C35.1555 11.468 34.6435 10.9773 34.0035 10.636C33.3635 10.2733 32.6488 10.092 31.8595 10.092C31.0915 10.092 30.3875 10.2733 29.7475 10.636C29.1288 10.9773 28.6168 11.468 28.2115 12.108C27.8275 12.7266 27.5928 13.4626 27.5075 14.316Z" fill="white"/>
<path d="M53.1635 23.18C52.8008 23.3293 52.3635 23.5 51.8515 23.692C51.3395 23.884 50.7848 24.0333 50.1875 24.14C49.6115 24.268 49.0248 24.332 48.4275 24.332C47.6382 24.332 46.9128 24.1933 46.2515 23.916C45.5902 23.6386 45.0568 23.2013 44.6515 22.604C44.2675 21.9853 44.0755 21.1853 44.0755 20.204V10.572H41.8675V7.27596H44.0755V1.83596H48.3635V7.27596H51.8835V10.572H48.3635V18.764C48.3848 19.34 48.5448 19.756 48.8435 20.012C49.1422 20.268 49.5155 20.396 49.9635 20.396C50.4115 20.396 50.8488 20.3213 51.2755 20.172C51.7022 20.0226 52.0435 19.8946 52.2995 19.788L53.1635 23.18Z" fill="white"/>
<path d="M54.0207 30.316C53.2314 30.316 52.4741 30.188 51.7487 29.932C51.0234 29.6973 50.3621 29.324 49.7648 28.812L51.6208 25.9C51.8554 26.156 52.1434 26.3373 52.4847 26.444C52.8261 26.5506 53.1674 26.604 53.5088 26.604C53.8927 26.604 54.2341 26.508 54.5327 26.316C54.8527 26.1453 55.0981 25.9 55.2687 25.58C55.4608 25.26 55.5568 24.8973 55.5568 24.492V7.27596H59.8447V24.172C59.8447 25.3666 59.5781 26.4333 59.0448 27.372C58.5327 28.3106 57.8394 29.036 56.9647 29.548C56.1114 30.06 55.1301 30.316 54.0207 30.316ZM55.5568 4.93996V0.68396H59.8447V4.93996H55.5568Z" fill="white"/>
<path d="M71.4845 24.364C70.1192 24.364 68.8925 24.14 67.8045 23.692C66.7165 23.2226 65.7885 22.5826 65.0205 21.772C64.2738 20.9613 63.6978 20.0333 63.2925 18.988C62.8872 17.9426 62.6845 16.844 62.6845 15.692C62.6845 14.5186 62.8872 13.4093 63.2925 12.364C63.6978 11.3186 64.2738 10.3906 65.0205 9.57996C65.7885 8.76929 66.7165 8.13996 67.8045 7.69196C68.8925 7.22263 70.1192 6.98796 71.4845 6.98796C72.8498 6.98796 74.0658 7.22263 75.1325 7.69196C76.2205 8.13996 77.1485 8.76929 77.9165 9.57996C78.6845 10.3906 79.2605 11.3186 79.6445 12.364C80.0498 13.4093 80.2525 14.5186 80.2525 15.692C80.2525 16.844 80.0498 17.9426 79.6445 18.988C79.2605 20.0333 78.6845 20.9613 77.9165 21.772C77.1698 22.5826 76.2525 23.2226 75.1645 23.692C74.0765 24.14 72.8498 24.364 71.4845 24.364ZM67.1005 15.692C67.1005 16.6733 67.2925 17.548 67.6765 18.316C68.0605 19.0626 68.5832 19.6493 69.2445 20.076C69.9058 20.5026 70.6525 20.716 71.4845 20.716C72.2952 20.716 73.0312 20.5026 73.6925 20.076C74.3538 19.628 74.8765 19.0306 75.2605 18.284C75.6658 17.516 75.8685 16.6413 75.8685 15.66C75.8685 14.7 75.6658 13.836 75.2605 13.068C74.8765 12.3 74.3538 11.7026 73.6925 11.276C73.0312 10.8493 72.2952 10.636 71.4845 10.636C70.6525 10.636 69.9058 10.86 69.2445 11.308C68.5832 11.7346 68.0605 12.332 67.6765 13.1C67.2925 13.8466 67.1005 14.7106 67.1005 15.692Z" fill="white"/>
<path d="M92.6828 24.364C91.4028 24.364 90.2614 24.076 89.2588 23.5C88.2561 22.924 87.4668 22.1346 86.8907 21.132V24.044H83.1468V0.68396H87.4348V10.22C88.0321 9.21729 88.8108 8.42796 89.7708 7.85196C90.7521 7.27596 91.8934 6.98796 93.1947 6.98796C94.2827 6.98796 95.2747 7.22263 96.1708 7.69196C97.0668 8.13996 97.8348 8.76929 98.4748 9.57996C99.1361 10.3906 99.6374 11.3186 99.9788 12.364C100.341 13.4093 100.523 14.5293 100.523 15.724C100.523 16.9186 100.32 18.0386 99.9147 19.084C99.5307 20.1293 98.9868 21.0573 98.2828 21.868C97.5788 22.6573 96.7467 23.276 95.7868 23.724C94.8481 24.1506 93.8134 24.364 92.6828 24.364ZM91.4987 20.716C92.1814 20.716 92.8001 20.588 93.3548 20.332C93.9307 20.0546 94.4214 19.692 94.8268 19.244C95.2534 18.796 95.5734 18.2733 95.7868 17.676C96.0214 17.0573 96.1387 16.4173 96.1387 15.756C96.1387 14.8386 95.9468 13.996 95.5628 13.228C95.2001 12.4386 94.6881 11.8093 94.0267 11.34C93.3867 10.8706 92.6294 10.636 91.7548 10.636C91.1361 10.636 90.5388 10.7853 89.9628 11.084C89.4081 11.3613 88.9067 11.7453 88.4587 12.236C88.0321 12.7266 87.6908 13.2813 87.4348 13.9V17.9C87.5628 18.3266 87.7654 18.7106 88.0427 19.052C88.3414 19.3933 88.6827 19.692 89.0667 19.948C89.4508 20.1826 89.8454 20.3746 90.2507 20.524C90.6774 20.652 91.0934 20.716 91.4987 20.716Z" fill="white"/>
</svg>
