<svg width="101" height="30" viewBox="0 0 101 30" fill="none" xmlns="http://www.w3.org/2000/svg">
<path d="M10.784 23.7041C9.312 23.7041 7.91467 23.4054 6.592 22.8081C5.29067 22.2107 4.13867 21.3894 3.136 20.3441C2.15467 19.2774 1.38667 18.0401 0.832 16.6321C0.277333 15.2241 0 13.6987 0 12.0561C0 10.4987 0.277333 9.03742 0.832 7.67208C1.38667 6.28541 2.16533 5.06941 3.168 4.02408C4.17067 2.97875 5.344 2.15741 6.688 1.56008C8.032 0.962748 9.49333 0.664082 11.072 0.664082C13.2053 0.664082 15.0293 1.12275 16.544 2.04008C18.08 2.93608 19.232 4.13075 20 5.62408L16.704 8.05608C16.128 6.92542 15.3173 6.06142 14.272 5.46408C13.248 4.86675 12.128 4.56808 10.912 4.56808C9.952 4.56808 9.07733 4.77075 8.288 5.17608C7.49867 5.58142 6.816 6.13608 6.24 6.84008C5.664 7.54408 5.216 8.35475 4.896 9.27208C4.59733 10.1894 4.448 11.1601 4.448 12.1841C4.448 13.2721 4.608 14.2747 4.928 15.1921C5.26933 16.1094 5.73867 16.9094 6.336 17.5921C6.95467 18.2747 7.66933 18.8187 8.48 19.2241C9.29067 19.6081 10.1867 19.8001 11.168 19.8001C12.32 19.8001 13.4187 19.5014 14.464 18.9041C15.5307 18.3067 16.5227 17.4321 17.44 16.2801V20.6321C15.5413 22.6801 13.3227 23.7041 10.784 23.7041ZM17.12 15.0961H12.544V11.8641H20.768V23.5441H17.12V15.0961Z" fill="#0E0F12"/>
<path d="M31.8915 23.8641C30.5475 23.8641 29.3315 23.6401 28.2435 23.1921C27.1555 22.7227 26.2275 22.0934 25.4595 21.3041C24.6915 20.4934 24.0942 19.5761 23.6675 18.5521C23.2622 17.5067 23.0595 16.4081 23.0595 15.2561C23.0595 13.6561 23.4115 12.1947 24.1155 10.8721C24.8408 9.54941 25.8648 8.49341 27.1875 7.70408C28.5315 6.89341 30.1102 6.48808 31.9235 6.48808C33.7582 6.48808 35.3262 6.89341 36.6275 7.70408C37.9288 8.49341 38.9208 9.54941 39.6035 10.8721C40.3075 12.1734 40.6595 13.5814 40.6595 15.0961C40.6595 15.3521 40.6488 15.6187 40.6275 15.8961C40.6062 16.1521 40.5848 16.3654 40.5635 16.5361H27.6035C27.6888 17.3894 27.9342 18.1361 28.3395 18.7761C28.7662 19.4161 29.2995 19.9067 29.9395 20.2481C30.6008 20.5681 31.3048 20.7281 32.0515 20.7281C32.9048 20.7281 33.7048 20.5254 34.4515 20.1201C35.2195 19.6934 35.7422 19.1387 36.0195 18.4561L39.6995 19.4801C39.2942 20.3334 38.7075 21.0907 37.9395 21.7521C37.1928 22.4134 36.3075 22.9361 35.2835 23.3201C34.2595 23.6827 33.1288 23.8641 31.8915 23.8641ZM27.5075 13.8161H36.2755C36.1902 12.9627 35.9448 12.2267 35.5395 11.6081C35.1555 10.9681 34.6435 10.4774 34.0035 10.1361C33.3635 9.77342 32.6488 9.59208 31.8595 9.59208C31.0915 9.59208 30.3875 9.77342 29.7475 10.1361C29.1288 10.4774 28.6168 10.9681 28.2115 11.6081C27.8275 12.2267 27.5928 12.9627 27.5075 13.8161Z" fill="#0E0F12"/>
<path d="M53.1635 22.6801C52.8008 22.8294 52.3635 23.0001 51.8515 23.1921C51.3395 23.3841 50.7848 23.5334 50.1875 23.6401C49.6115 23.7681 49.0248 23.8321 48.4275 23.8321C47.6382 23.8321 46.9128 23.6934 46.2515 23.4161C45.5902 23.1387 45.0568 22.7014 44.6515 22.1041C44.2675 21.4854 44.0755 20.6854 44.0755 19.7041V10.0721H41.8675V6.77608H44.0755V1.33608H48.3635V6.77608H51.8835V10.0721H48.3635V18.2641C48.3848 18.8401 48.5448 19.2561 48.8435 19.5121C49.1422 19.7681 49.5155 19.8961 49.9635 19.8961C50.4115 19.8961 50.8488 19.8214 51.2755 19.6721C51.7022 19.5227 52.0435 19.3947 52.2995 19.2881L53.1635 22.6801Z" fill="#0E0F12"/>
<path d="M54.0207 29.8161C53.2314 29.8161 52.4741 29.6881 51.7487 29.4321C51.0234 29.1974 50.3621 28.8241 49.7648 28.3121L51.6208 25.4001C51.8554 25.6561 52.1434 25.8374 52.4847 25.9441C52.8261 26.0507 53.1674 26.1041 53.5088 26.1041C53.8927 26.1041 54.2341 26.0081 54.5327 25.8161C54.8527 25.6454 55.0981 25.4001 55.2687 25.0801C55.4608 24.7601 55.5568 24.3974 55.5568 23.9921V6.77608H59.8447V23.6721C59.8447 24.8667 59.5781 25.9334 59.0448 26.8721C58.5327 27.8107 57.8394 28.5361 56.9647 29.0481C56.1114 29.5601 55.1301 29.8161 54.0207 29.8161ZM55.5568 4.44008V0.184082H59.8447V4.44008H55.5568Z" fill="#0E0F12"/>
<path d="M71.4845 23.8641C70.1192 23.8641 68.8925 23.6401 67.8045 23.1921C66.7165 22.7227 65.7885 22.0828 65.0205 21.2721C64.2738 20.4614 63.6978 19.5334 63.2925 18.4881C62.8872 17.4427 62.6845 16.3441 62.6845 15.1921C62.6845 14.0187 62.8872 12.9094 63.2925 11.8641C63.6978 10.8187 64.2738 9.89075 65.0205 9.08008C65.7885 8.26942 66.7165 7.64008 67.8045 7.19208C68.8925 6.72275 70.1192 6.48808 71.4845 6.48808C72.8498 6.48808 74.0658 6.72275 75.1325 7.19208C76.2205 7.64008 77.1485 8.26942 77.9165 9.08008C78.6845 9.89075 79.2605 10.8187 79.6445 11.8641C80.0498 12.9094 80.2525 14.0187 80.2525 15.1921C80.2525 16.3441 80.0498 17.4427 79.6445 18.4881C79.2605 19.5334 78.6845 20.4614 77.9165 21.2721C77.1698 22.0828 76.2525 22.7227 75.1645 23.1921C74.0765 23.6401 72.8498 23.8641 71.4845 23.8641ZM67.1005 15.1921C67.1005 16.1734 67.2925 17.0481 67.6765 17.8161C68.0605 18.5627 68.5832 19.1494 69.2445 19.5761C69.9058 20.0027 70.6525 20.2161 71.4845 20.2161C72.2952 20.2161 73.0312 20.0027 73.6925 19.5761C74.3538 19.1281 74.8765 18.5307 75.2605 17.7841C75.6658 17.0161 75.8685 16.1414 75.8685 15.1601C75.8685 14.2001 75.6658 13.3361 75.2605 12.5681C74.8765 11.8001 74.3538 11.2027 73.6925 10.7761C73.0312 10.3494 72.2952 10.1361 71.4845 10.1361C70.6525 10.1361 69.9058 10.3601 69.2445 10.8081C68.5832 11.2347 68.0605 11.8321 67.6765 12.6001C67.2925 13.3467 67.1005 14.2107 67.1005 15.1921Z" fill="#0E0F12"/>
<path d="M92.6828 23.8641C91.4028 23.8641 90.2614 23.5761 89.2588 23.0001C88.2561 22.4241 87.4668 21.6347 86.8907 20.6321V23.5441H83.1468V0.184082H87.4348V9.72008C88.0321 8.71741 88.8108 7.92808 89.7708 7.35208C90.7521 6.77608 91.8934 6.48808 93.1947 6.48808C94.2827 6.48808 95.2747 6.72275 96.1708 7.19208C97.0668 7.64008 97.8348 8.26942 98.4748 9.08008C99.1361 9.89075 99.6374 10.8187 99.9788 11.8641C100.341 12.9094 100.523 14.0294 100.523 15.2241C100.523 16.4187 100.32 17.5387 99.9147 18.5841C99.5307 19.6294 98.9868 20.5574 98.2828 21.3681C97.5788 22.1574 96.7467 22.7761 95.7868 23.2241C94.8481 23.6507 93.8134 23.8641 92.6828 23.8641ZM91.4987 20.2161C92.1814 20.2161 92.8001 20.0881 93.3548 19.8321C93.9307 19.5547 94.4214 19.1921 94.8268 18.7441C95.2534 18.2961 95.5734 17.7734 95.7868 17.1761C96.0214 16.5574 96.1387 15.9174 96.1387 15.2561C96.1387 14.3387 95.9468 13.4961 95.5628 12.7281C95.2001 11.9387 94.6881 11.3094 94.0267 10.8401C93.3867 10.3707 92.6294 10.1361 91.7548 10.1361C91.1361 10.1361 90.5388 10.2854 89.9628 10.5841C89.4081 10.8614 88.9067 11.2454 88.4587 11.7361C88.0321 12.2267 87.6908 12.7814 87.4348 13.4001V17.4001C87.5628 17.8267 87.7654 18.2107 88.0427 18.5521C88.3414 18.8934 88.6827 19.1921 89.0667 19.4481C89.4508 19.6827 89.8454 19.8747 90.2507 20.0241C90.6774 20.1521 91.0934 20.2161 91.4987 20.2161Z" fill="#0E0F12"/>
</svg>
